<?xml version="1.0" encoding="UTF-8" standalone="no"?>
<!-- Created with Inkscape (http://www.inkscape.org/) -->

<svg
   xmlns:rdf="http://www.w3.org/1999/02/22-rdf-syntax-ns#"
   xmlns:svg="http://www.w3.org/2000/svg"
   xmlns="http://www.w3.org/2000/svg"
   id="svg2"
   version="1.1"
   width="18.347467"
   height="22.055443"
   viewBox="0 0 18.347467 22.055443"
>
  <path
     style="fill:#f5853c"
     d="m 1.319958,5.9950984 c 0,0 1.580932,-0.016375 3.049934,0.00568 0.838221,0.012583 0.363017,-1.2009554 0.583029,-3.0501666 0.430299,-3.61667268 8.141525,-4.2203504 8.247797,-0.052476 0.01262,0.4948966 0.06185,2.662153 -0.0037,3.0750006 0,0 3.090286,0.093555 4.113044,0.093555 1.461029,1.7599663 0.03889,-0.1788493 0.07723,0.2579903 l 0.960175,15.7307613 -9.173734,0 -9.173733,0 z m 13.814843,2.676093 -2.144863,0.041001 0.06758,2.2326376 -0.88715,-0.0546 L 12.142931,8.6462757 6.334802,8.464442 6.232167,11.022699 5.107053,10.991477 5.068883,8.5372585 3.277882,8.6213595 3.213492,11.869675 15.159095,11.886955 Z M 12.239479,6.004125 c 0.335928,0.00525 -0.06656,0.3274901 -0.05026,-0.099216 C 12.243187,4.4923114 12.17326,2.4722907 11.716986,1.9781539 10.927624,1.1232891 9.671833,1.0233522 8.914216,1.0554428 8.008575,1.0938033 6.927466,1.5388627 6.403562,2.5805948 5.85764,3.6661073 5.894114,5.3599002 6.217982,5.9099424 Z"
     id="path3338"
/>
</svg>
