<?xml version="1.0" encoding="utf-8"?>
<!-- Generator: Adobe Illustrator 19.0.0, SVG Export Plug-In . SVG Version: 6.00 Build 0)  -->
<svg version="1.1" id="Layer_1" xmlns="http://www.w3.org/2000/svg" xmlns:xlink="http://www.w3.org/1999/xlink" x="0px" y="0px"
	 viewBox="0 0 20.7 20.7" enable-background="new 0 0 20.7 20.7" xml:space="preserve">
<g id="XMLID_1_">
	<path id="XMLID_10_" fill="#7B7B7B" d="M10.4,0C4.6,0,0,4.6,0,10.4c0,5.7,4.6,10.4,10.4,10.4s10.4-4.6,10.4-10.4
		C20.7,4.6,16.1,0,10.4,0z M10.4,19.7c-5.1,0-9.3-4.1-9.3-9.3s4.1-9.3,9.3-9.3s9.3,4.1,9.3,9.3S15.5,19.7,10.4,19.7z"/>
	<g id="XMLID_5_">
		
			<rect id="XMLID_3_" x="8.3" y="8.4" transform="matrix(0.6925 -0.7214 0.7214 0.6925 -2.6926 11.9759)" fill="#7B7B7B" width="8.7" height="1.6"/>
		
			<rect id="XMLID_4_" x="5.3" y="9.4" transform="matrix(0.7373 0.6755 -0.6755 0.7373 9.066 -3.0283)" fill="#7B7B7B" width="6.2" height="1.6"/>
	</g>
</g>
</svg>
